 <svg version="1.0" xmlns="http://www.w3.org/2000/svg" width="300.000000pt" height="304.000000pt" viewBox="0 0 300.000000 304.000000" preserveAspectRatio="xMidYMid meet">  <g transform="translate(0.000000,304.000000) scale(0.100000,-0.100000)" fill="#ff0a0a" stroke="none"> <path d="M1380 2960 c-8 -5 -31 -22 -50 -39 -77 -66 -108 -91 -114 -91 -4 0 -54 -36 -112 -80 -57 -44 -109 -80 -114 -80 -5 0 -12 -9 -15 -20 -3 -11 -12 -20 -19 -20 -8 0 -56 -31 -107 -69 -52 -39 -109 -80 -127 -93 -19 -13 -57 -41 -85 -63 -29 -23 -70 -52 -92 -65 -22 -13 -50 -33 -61 -44 -12 -12 -38 -32 -59 -46 -21 -14 -56 -41 -79 -61 -22 -19 -66 -52 -96 -72 -30 -21 -89 -61 -131 -90 -42 -28 -85 -57 -95 -64 -28 -17 469 -16 512 2 17 7 76 45 130 83 136 97 153 109 201 140 23 15 56 41 74 57 33 29 44 38 144 100 26 17 74 51 107 78 33 26 65 47 70 47 5 0 31 18 57 40 26 22 52 40 58 40 6 0 16 7 23 15 16 19 156 115 168 115 5 0 15 7 23 16 7 8 38 32 68 52 31 20 64 45 73 55 10 9 22 17 26 17 5 0 22 11 38 25 57 50 88 44 185 -37 26 -21 50 -38 53 -38 4 0 44 -28 89 -62 96 -73 102 -78 250 -182 61 -44 151 -110 198 -147 48 -37 97 -73 110 -81 13 -7 48 -32 78 -55 40 -30 58 -39 66 -32 7 8 6 13 -2 16 -7 2 -76 54 -155 114 -79 60 -177 135 -218 166 -41 32 -128 100 -194 153 -165 132 -318 250 -336 257 -8 4 -25 17 -37 30 -22 23 -24 23 -255 23 -128 0 -240 -4 -248 -10z m475 -29 c4 -8 -79 -67 -118 -83 -9 -4 -20 -14 -23 -23 -4 -8 -10 -15 -15 -15 -12 0 -113 -70 -117 -82 -2 -4 -9 -8 -17 -8 -7 0 -35 -18 -62 -40 -28 -22 -53 -37 -57 -33 -3 3 -6 2 -6 -4 0 -6 -26 -28 -57 -49 -62 -41 -61 -40 -109 -79 -18 -14 -37 -25 -42 -25 -6 0 -21 -10 -34 -23 -13 -13 -30 -26 -38 -30 -8 -4 -37 -23 -65 -42 -27 -20 -58 -41 -69 -48 -10 -7 -35 -24 -55 -40 -20 -15 -52 -39 -72 -55 -20 -15 -47 -34 -59 -42 -12 -8 -28 -21 -36 -27 -7 -7 -16 -13 -20 -13 -4 0 -30 -17 -58 -38 -194 -143 -186 -140 -394 -144 -100 -2 -182 -1 -182 2 0 12 77 78 130 112 30 19 77 53 103 76 27 23 52 42 57 42 5 0 20 11 34 23 14 13 37 32 52 43 15 10 39 30 55 42 16 13 29 21 29 17 0 -3 11 4 24 17 27 26 74 60 78 57 2 -1 14 8 28 19 58 49 188 142 199 142 7 0 9 5 6 10 -3 6 1 10 9 10 8 0 30 13 48 30 18 16 74 58 123 94 50 36 123 91 164 123 128 100 99 92 343 92 120 0 220 -4 223 -8z"></path> <path d="M1705 2112 c-15 -11 -45 -103 -45 -137 0 -33 -37 -74 -135 -150 -133 -103 -159 -140 -158 -235 0 -84 40 -171 134 -297 81 -108 105 -128 172 -148 144 -43 267 6 348 140 124 205 119 191 119 294 0 77 -4 100 -20 126 -18 29 -115 109 -195 160 -53 33 -95 85 -95 117 0 17 -7 42 -15 56 -8 15 -19 39 -25 55 -8 22 -16 27 -42 27 -18 0 -38 -4 -43 -8z m73 -65 c7 -12 16 -44 22 -72 9 -40 21 -59 65 -100 29 -27 78 -65 108 -83 70 -42 136 -114 139 -150 6 -107 -12 -162 -105 -327 -26 -47 -89 -111 -130 -132 -37 -19 -109 -24 -169 -11 -52 10 -138 63 -138 83 0 7 -4 15 -8 17 -18 7 -95 122 -142 211 -38 72 -38 147 1 201 24 34 149 144 149 131 0 -8 51 44 92 92 16 21 28 50 33 82 11 80 56 111 83 58z"></path> <path d="M960 1937 c0 -85 3 -297 7 -471 l6 -317 119 -97 c65 -53 134 -108 153 -121 30 -21 35 -30 35 -63 l0 -38 -165 7 c-122 4 -165 3 -165 -5 0 -7 4 -12 8 -12 4 0 21 -24 36 -53 l29 -53 -36 -62 -36 -62 145 0 c139 0 145 -1 139 -19 -3 -11 -2 -21 2 -24 4 -3 238 -6 518 -8 l510 -4 3 27 3 27 140 -4 c76 -3 139 -2 139 0 0 7 -41 79 -51 89 -17 18 -9 53 21 97 16 24 30 47 30 52 0 4 -74 7 -165 7 l-165 0 0 33 c0 29 9 40 66 88 37 30 72 59 78 64 6 6 45 38 87 73 l76 62 7 466 c4 256 5 468 3 470 -2 3 -44 -37 -93 -88 -49 -50 -103 -105 -120 -122 -18 -17 -46 -47 -63 -67 l-30 -36 -12 -229 c-7 -141 -15 -234 -22 -243 -7 -8 -68 -58 -137 -112 -69 -54 -134 -107 -145 -117 -11 -10 -40 -34 -65 -53 -25 -18 -51 -39 -58 -46 -27 -26 -62 -14 -138 50 -42 34 -86 69 -97 77 -12 8 -77 59 -144 113 l-123 98 -1 67 c0 37 -4 141 -8 232 l-6 165 -30 31 c-17 16 -86 87 -154 157 -68 70 -125 127 -127 127 -2 0 -4 -69 -4 -153z m1539 -349 l-2 -413 -36 -30 c-19 -16 -71 -60 -114 -98 -43 -37 -84 -70 -91 -75 -31 -20 -67 -76 -62 -97 4 -14 0 -28 -9 -35 -8 -7 -15 -21 -15 -31 0 -18 -14 -19 -295 -18 -170 0 -297 4 -300 10 -4 5 -11 9 -16 9 -6 0 -7 -4 -4 -10 7 -12 -201 -9 -227 4 -13 6 -18 4 -18 -8 0 -9 -7 -16 -15 -16 -18 0 -19 9 -2 31 7 9 18 14 25 12 15 -6 16 13 1 22 -5 4 -9 17 -8 28 1 12 -1 29 -5 38 -7 16 -193 176 -245 212 -59 40 -59 34 -60 457 -1 275 1 390 9 395 7 4 57 -40 121 -104 l109 -112 1 -77 c0 -42 2 -102 4 -132 2 -30 7 -98 10 -151 6 -90 9 -98 38 -131 18 -19 40 -38 50 -41 9 -4 17 -10 17 -15 0 -5 21 -24 48 -42 26 -19 53 -40 60 -47 8 -7 30 -26 50 -41 21 -15 39 -30 42 -33 18 -22 159 -121 178 -126 38 -9 52 0 240 158 12 10 26 19 30 19 5 0 18 10 29 23 11 12 30 29 43 37 13 8 51 39 86 68 80 67 84 80 90 315 2 100 6 190 7 200 4 23 216 257 233 257 3 0 4 -186 3 -412z m-294 -779 c-4 -5 -1 -9 4 -9 6 0 11 -4 11 -10 0 -5 -6 -10 -14 -10 -14 0 -28 34 -19 44 9 9 24 -4 18 -15z m-925 6 c0 -3 -11 -10 -25 -15 -24 -9 -25 -13 -25 -100 l0 -90 -120 0 c-66 0 -120 3 -120 6 0 4 12 28 26 54 l26 48 -24 38 c-14 22 -28 45 -32 52 -6 9 26 12 143 12 83 0 151 -2 151 -5z m1111 -5 l138 0 -24 -36 c-38 -55 -39 -70 -11 -120 14 -26 26 -48 26 -50 0 -2 -54 -4 -120 -4 l-120 0 -2 33 c0 17 0 58 0 89 2 54 0 58 -28 73 -31 16 -42 32 -14 21 9 -3 78 -6 155 -6z m-518 -48 l377 -2 0 -103 0 -103 -47 2 c-27 1 -252 3 -500 3 l-453 1 0 103 0 102 123 -1 c67 0 292 -1 500 -2z"></path> <path d="M1047 763 c-13 -12 -7 -24 10 -21 25 4 28 -27 4 -51 -29 -29 -26 -40 11 -38 31 2 54 27 24 27 -9 0 -16 5 -16 10 0 6 4 10 9 10 16 0 23 40 11 55 -13 16 -42 20 -53 8z"></path> <path d="M1142 758 c-17 -17 -15 -83 3 -98 23 -19 54 -3 61 35 10 57 -30 97 -64 63z m38 -49 c0 -21 -4 -39 -10 -39 -5 0 -10 21 -10 46 0 27 4 43 10 39 6 -3 10 -24 10 -46z"></path> <path d="M2306 743 c-7 -26 5 -43 32 -43 6 0 12 -7 12 -15 0 -11 -8 -15 -22 -13 -13 2 -25 -1 -28 -7 -8 -17 46 -17 60 -1 17 21 50 20 65 -1 11 -15 13 -15 22 3 11 22 5 104 -8 104 -5 0 -21 -18 -35 -40 -26 -39 -27 -40 -41 -20 -8 11 -21 20 -29 20 -8 0 -12 5 -9 10 4 6 14 9 22 8 9 -2 18 3 20 10 3 8 -6 12 -25 12 -24 0 -31 -5 -36 -27z"></path> <path d="M1313 708 c17 -23 26 -41 48 -95 11 -28 11 -28 22 -6 14 32 -29 117 -63 121 -23 4 -23 3 -7 -20z"></path> <path d="M1411 708 c-5 -14 -5 -26 1 -29 5 -3 8 -26 7 -50 -3 -37 -1 -44 14 -44 16 0 19 10 20 73 2 63 0 72 -16 72 -10 0 -21 -10 -26 -22z"></path> <path d="M1492 718 c-20 -20 -14 -47 21 -77 26 -25 30 -32 19 -43 -11 -11 -17 -9 -33 11 -18 22 -19 22 -19 3 0 -41 73 -40 86 1 5 17 -1 28 -32 53 -41 35 -40 56 1 34 27 -14 38 -11 27 7 -11 18 -56 25 -70 11z"></path> <path d="M1625 697 c-54 -131 -50 -117 -30 -117 10 0 15 7 13 18 -2 12 5 18 25 20 22 3 27 -1 27 -17 0 -15 6 -21 21 -21 16 0 19 4 14 18 -5 9 -17 42 -27 72 -11 30 -22 57 -24 59 -2 2 -11 -12 -19 -32z"></path> <path d="M1733 711 c-12 -11 -24 -29 -27 -39 -9 -28 10 -71 38 -83 27 -12 76 -5 76 11 0 6 -11 8 -25 4 -34 -8 -55 11 -55 50 0 51 33 72 64 40 15 -14 17 -14 22 1 8 21 3 25 -37 31 -26 4 -39 0 -56 -15z"></path> <path d="M1865 705 c-32 -31 -33 -77 -3 -105 26 -24 71 -26 89 -3 12 15 12 16 -6 11 -11 -3 -26 -7 -34 -9 -23 -6 -46 48 -32 77 15 33 38 40 61 19 19 -17 20 -17 20 2 0 13 -8 23 -22 27 -38 10 -48 7 -73 -19z"></path> <path d="M1991 704 c-41 -52 -12 -124 48 -124 37 0 61 28 61 71 0 71 -69 104 -109 53z m67 -6 c16 -16 15 -70 -2 -93 -11 -16 -17 -17 -29 -7 -21 18 -29 56 -17 86 10 28 29 33 48 14z"></path> <path d="M2132 718 c-20 -20 -13 -46 18 -70 17 -12 30 -27 30 -34 0 -22 -21 -26 -41 -8 -18 16 -19 16 -19 -4 0 -18 6 -22 34 -22 64 0 74 59 16 92 -17 10 -28 22 -25 28 8 13 35 13 35 0 0 -5 5 -10 10 -10 20 0 9 28 -12 34 -31 8 -32 8 -46 -6z"></path> <path d="M1310 642 c0 -16 -3 -37 -6 -46 -4 -11 -1 -16 10 -16 13 0 15 7 10 43 -8 52 -14 60 -14 19z"></path> <path d="M13 1354 c-7 -19 14 -357 28 -446 22 -137 111 -337 181 -408 21 -21 38 -42 39 -46 1 -11 134 -125 168 -143 14 -8 42 -26 61 -41 19 -15 53 -33 75 -40 22 -7 47 -18 55 -25 8 -8 33 -17 55 -20 22 -4 52 -14 66 -21 14 -7 68 -25 120 -40 86 -25 135 -35 319 -65 81 -14 603 -6 642 9 14 6 64 16 110 22 45 6 92 15 103 19 11 5 54 17 95 26 41 10 83 23 95 30 11 7 35 16 53 20 86 18 255 106 313 163 18 18 36 32 39 32 16 0 91 69 142 130 138 166 185 316 198 640 4 113 6 208 3 213 -7 11 -81 8 -88 -4 -4 -5 -9 -79 -11 -162 -9 -345 -16 -387 -95 -544 -45 -90 -61 -112 -137 -183 -47 -44 -114 -96 -148 -115 -33 -19 -67 -41 -74 -50 -7 -8 -16 -15 -21 -15 -5 0 -32 -10 -61 -23 -120 -53 -162 -67 -241 -81 -16 -3 -34 -10 -41 -15 -7 -6 -39 -13 -72 -16 -124 -12 -140 -15 -179 -26 -22 -6 -111 -12 -200 -13 -132 -1 -178 3 -261 21 -200 45 -315 103 -429 217 -38 39 -74 78 -80 87 -5 9 -31 49 -58 88 -58 88 -99 178 -114 251 -26 124 -50 314 -59 478 l-6 112 -289 0 c-258 0 -290 -2 -296 -16z m545 -27 c5 -7 12 -64 16 -127 3 -63 8 -124 10 -135 8 -40 16 -101 21 -150 9 -86 17 -127 32 -163 8 -19 12 -36 9 -39 -10 -11 134 -263 155 -271 5 -2 9 -9 9 -15 0 -12 18 -32 85 -97 73 -70 109 -100 122 -100 7 0 13 -4 13 -8 0 -5 30 -22 67 -39 88 -40 153 -64 153 -57 0 3 6 2 13 -3 6 -4 19 -8 27 -8 33 -2 80 -17 80 -27 0 -6 -22 -7 -57 -3 -32 3 -78 8 -103 11 -76 7 -182 25 -250 41 -36 8 -78 17 -95 20 -16 3 -44 11 -62 20 -17 8 -37 16 -45 17 -7 2 -20 6 -28 9 -8 3 -28 10 -45 15 -95 33 -222 100 -263 139 -7 7 -17 13 -20 13 -14 0 -131 121 -177 183 -43 57 -93 146 -99 179 -2 7 -9 27 -16 43 -19 47 -31 87 -35 120 -2 17 -7 53 -11 80 -9 67 -10 81 -19 218 -10 163 -29 153 268 149 170 -2 238 -6 245 -15z m2383 -9 c3 -47 -2 -223 -7 -273 -4 -33 -6 -67 -6 -75 1 -28 -8 -60 -18 -60 -12 0 -13 91 -3 283 5 105 9 137 20 137 7 0 13 -6 14 -12z m-31 -426 c0 -17 -32 -128 -39 -135 -4 -4 0 27 8 68 9 41 19 75 23 75 4 0 8 -4 8 -8z"></path> </g> </svg> 